<svg width="12" height="12" viewBox="0 0 12 12" fill="none" xmlns="http://www.w3.org/2000/svg">
<g clip-path="url(#clip0_2_1874)">
<path d="M11.3565 2.0385C11.2159 1.86972 11.0398 1.73398 10.8408 1.64091C10.6418 1.54784 10.4247 1.49973 10.205 1.5H2.121L2.1 1.3245C2.05702 0.959709 1.88169 0.623366 1.60724 0.379239C1.3328 0.135112 0.978314 0.000170897 0.611 0L0.5 0C0.367392 0 0.240215 0.0526784 0.146447 0.146447C0.0526784 0.240215 0 0.367392 0 0.5C0 0.632608 0.0526784 0.759785 0.146447 0.853553C0.240215 0.947322 0.367392 1 0.5 1H0.611C0.733467 1.00002 0.851669 1.04498 0.943186 1.12636C1.0347 1.20774 1.09317 1.31987 1.1075 1.4415L1.7955 7.2915C1.86693 7.89989 2.15924 8.46089 2.61695 8.868C3.07467 9.27512 3.66593 9.50001 4.2785 9.5H9.5C9.63261 9.5 9.75979 9.44732 9.85355 9.35355C9.94732 9.25979 10 9.13261 10 9C10 8.86739 9.94732 8.74021 9.85355 8.64645C9.75979 8.55268 9.63261 8.5 9.5 8.5H4.2785C3.96903 8.49913 3.6674 8.40256 3.41497 8.22353C3.16254 8.0445 2.97166 7.79177 2.8685 7.5H8.8285C9.41465 7.50004 9.98217 7.29412 10.4319 6.91822C10.8817 6.54232 11.185 6.02035 11.289 5.4435L11.6815 3.2665C11.7207 3.0505 11.7119 2.82853 11.6557 2.61632C11.5995 2.4041 11.4974 2.20684 11.3565 2.0385ZM10.7 3.089L10.307 5.266C10.2446 5.6125 10.0622 5.926 9.79193 6.1516C9.52163 6.3772 9.18058 6.50053 8.8285 6.5H2.7095L2.239 2.5H10.205C10.2785 2.49956 10.3511 2.51531 10.4178 2.54613C10.4844 2.57694 10.5435 2.62207 10.5908 2.6783C10.638 2.73453 10.6723 2.80049 10.6912 2.87147C10.7101 2.94245 10.7131 3.01672 10.7 3.089Z" fill="black"/>
<path d="M3.5 12C4.05228 12 4.5 11.5523 4.5 11C4.5 10.4477 4.05228 10 3.5 10C2.94772 10 2.5 10.4477 2.5 11C2.5 11.5523 2.94772 12 3.5 12Z" fill="black"/>
<path d="M8.5 12C9.05228 12 9.5 11.5523 9.5 11C9.5 10.4477 9.05228 10 8.5 10C7.94772 10 7.5 10.4477 7.5 11C7.5 11.5523 7.94772 12 8.5 12Z" fill="black"/>
</g>
<defs>
<clipPath id="clip0_2_1874">
<rect width="12" height="12" fill="white"/>
</clipPath>
</defs>
</svg>
