<svg width="12" height="12" viewBox="0 0 12 12" fill="none" xmlns="http://www.w3.org/2000/svg">
<g clip-path="url(#clip0_2_1829)">
<path d="M6 8C5.60444 8 5.21776 7.8827 4.88886 7.66294C4.55996 7.44318 4.30362 7.13082 4.15224 6.76537C4.00087 6.39992 3.96126 5.99778 4.03843 5.60982C4.1156 5.22186 4.30608 4.86549 4.58579 4.58579C4.86549 4.30608 5.22186 4.1156 5.60982 4.03843C5.99778 3.96126 6.39991 4.00087 6.76537 4.15224C7.13082 4.30362 7.44318 4.55996 7.66294 4.88886C7.8827 5.21776 8 5.60444 8 6C8 6.53043 7.78929 7.03914 7.41421 7.41422C7.03914 7.78929 6.53043 8 6 8ZM6 5C5.80222 5 5.60888 5.05865 5.44443 5.16853C5.27998 5.27841 5.15181 5.43459 5.07612 5.61732C5.00043 5.80004 4.98063 6.00111 5.01921 6.19509C5.0578 6.38907 5.15304 6.56726 5.29289 6.70711C5.43275 6.84696 5.61093 6.9422 5.80491 6.98079C5.99889 7.01937 6.19996 6.99957 6.38268 6.92388C6.56541 6.84819 6.72159 6.72002 6.83147 6.55557C6.94135 6.39112 7 6.19778 7 6C7 5.73479 6.89464 5.48043 6.70711 5.29289C6.51957 5.10536 6.26522 5 6 5ZM9 11.5C9 10.7044 8.68393 9.94129 8.12132 9.37868C7.55871 8.81607 6.79565 8.5 6 8.5C5.20435 8.5 4.44129 8.81607 3.87868 9.37868C3.31607 9.94129 3 10.7044 3 11.5C3 11.6326 3.05268 11.7598 3.14645 11.8536C3.24021 11.9473 3.36739 12 3.5 12C3.63261 12 3.75979 11.9473 3.85355 11.8536C3.94732 11.7598 4 11.6326 4 11.5C4 10.9696 4.21071 10.4609 4.58579 10.0858C4.96086 9.71072 5.46957 9.5 6 9.5C6.53043 9.5 7.03914 9.71072 7.41421 10.0858C7.78929 10.4609 8 10.9696 8 11.5C8 11.6326 8.05268 11.7598 8.14645 11.8536C8.24021 11.9473 8.36739 12 8.5 12C8.63261 12 8.75979 11.9473 8.85355 11.8536C8.94732 11.7598 9 11.6326 9 11.5ZM9 4C8.60444 4 8.21776 3.8827 7.88886 3.66294C7.55996 3.44318 7.30362 3.13082 7.15224 2.76537C7.00087 2.39992 6.96126 1.99778 7.03843 1.60982C7.1156 1.22186 7.30608 0.865492 7.58579 0.585787C7.86549 0.306082 8.22186 0.115601 8.60982 0.0384303C8.99778 -0.0387401 9.39991 0.000866562 9.76537 0.152242C10.1308 0.303617 10.4432 0.559962 10.6629 0.888861C10.8827 1.21776 11 1.60444 11 2C11 2.53043 10.7893 3.03914 10.4142 3.41422C10.0391 3.78929 9.53043 4 9 4ZM9 1C8.80222 1 8.60888 1.05865 8.44443 1.16853C8.27998 1.27841 8.15181 1.43459 8.07612 1.61732C8.00043 1.80004 7.98063 2.00111 8.01921 2.19509C8.0578 2.38907 8.15304 2.56726 8.29289 2.70711C8.43275 2.84696 8.61093 2.9422 8.80491 2.98079C8.99889 3.01937 9.19996 2.99957 9.38268 2.92388C9.56541 2.84819 9.72159 2.72002 9.83147 2.55557C9.94135 2.39112 10 2.19778 10 2C10 1.73478 9.89464 1.48043 9.70711 1.29289C9.51957 1.10536 9.26522 1 9 1ZM12 7.5C11.9992 6.7046 11.6829 5.942 11.1204 5.37956C10.558 4.81712 9.79541 4.5008 9 4.5C8.86739 4.5 8.74021 4.55268 8.64645 4.64645C8.55268 4.74022 8.5 4.86739 8.5 5C8.5 5.13261 8.55268 5.25979 8.64645 5.35355C8.74021 5.44732 8.86739 5.5 9 5.5C9.53043 5.5 10.0391 5.71072 10.4142 6.08579C10.7893 6.46086 11 6.96957 11 7.5C11 7.63261 11.0527 7.75979 11.1464 7.85356C11.2402 7.94732 11.3674 8 11.5 8C11.6326 8 11.7598 7.94732 11.8536 7.85356C11.9473 7.75979 12 7.63261 12 7.5ZM3 4C2.60444 4 2.21776 3.8827 1.88886 3.66294C1.55996 3.44318 1.30362 3.13082 1.15224 2.76537C1.00087 2.39992 0.961259 1.99778 1.03843 1.60982C1.1156 1.22186 1.30608 0.865492 1.58579 0.585787C1.86549 0.306082 2.22186 0.115601 2.60982 0.0384303C2.99778 -0.0387401 3.39991 0.000866562 3.76537 0.152242C4.13082 0.303617 4.44318 0.559962 4.66294 0.888861C4.8827 1.21776 5 1.60444 5 2C5 2.53043 4.78929 3.03914 4.41421 3.41422C4.03914 3.78929 3.53043 4 3 4V4ZM3 1C2.80222 1 2.60888 1.05865 2.44443 1.16853C2.27998 1.27841 2.15181 1.43459 2.07612 1.61732C2.00043 1.80004 1.98063 2.00111 2.01921 2.19509C2.0578 2.38907 2.15304 2.56726 2.29289 2.70711C2.43275 2.84696 2.61093 2.9422 2.80491 2.98079C2.99889 3.01937 3.19996 2.99957 3.38268 2.92388C3.56541 2.84819 3.72159 2.72002 3.83147 2.55557C3.94135 2.39112 4 2.19778 4 2C4 1.73478 3.89464 1.48043 3.70711 1.29289C3.51957 1.10536 3.26522 1 3 1ZM1 7.5C1 6.96957 1.21071 6.46086 1.58579 6.08579C1.96086 5.71072 2.46957 5.5 3 5.5C3.13261 5.5 3.25979 5.44732 3.35355 5.35355C3.44732 5.25979 3.5 5.13261 3.5 5C3.5 4.86739 3.44732 4.74022 3.35355 4.64645C3.25979 4.55268 3.13261 4.5 3 4.5C2.20459 4.5008 1.44199 4.81712 0.879557 5.37956C0.31712 5.942 0.000794215 6.7046 0 7.5C0 7.63261 0.0526784 7.75979 0.146447 7.85356C0.240215 7.94732 0.367392 8 0.5 8C0.632608 8 0.759785 7.94732 0.853553 7.85356C0.947322 7.75979 1 7.63261 1 7.5Z" fill="black"/>
</g>
<defs>
<clipPath id="clip0_2_1829">
<rect width="12" height="12" fill="white"/>
</clipPath>
</defs>
</svg>
