<svg width="12" height="12" viewBox="0 0 12 12" fill="none" xmlns="http://www.w3.org/2000/svg">
<g clip-path="url(#clip0_16_449)">
<path d="M11.5 11H2.5C2.10218 11 1.72064 10.842 1.43934 10.5607C1.15804 10.2794 1 9.89782 1 9.5V0.5C1 0.367392 0.947322 0.240215 0.853553 0.146447C0.759785 0.0526784 0.632608 0 0.5 0C0.367392 0 0.240215 0.0526784 0.146447 0.146447C0.0526784 0.240215 0 0.367392 0 0.5L0 9.5C0.000793929 10.1628 0.264441 10.7982 0.73311 11.2669C1.20178 11.7356 1.8372 11.9992 2.5 12H11.5C11.6326 12 11.7598 11.9473 11.8536 11.8536C11.9473 11.7598 12 11.6326 12 11.5C12 11.3674 11.9473 11.2402 11.8536 11.1464C11.7598 11.0527 11.6326 11 11.5 11Z" fill="black"/>
<path d="M3 10C3.13261 10 3.25979 9.94732 3.35355 9.85355C3.44732 9.75979 3.5 9.63261 3.5 9.5V6C3.5 5.86739 3.44732 5.74021 3.35355 5.64645C3.25979 5.55268 3.13261 5.5 3 5.5C2.86739 5.5 2.74021 5.55268 2.64645 5.64645C2.55268 5.74021 2.5 5.86739 2.5 6V9.5C2.5 9.63261 2.55268 9.75979 2.64645 9.85355C2.74021 9.94732 2.86739 10 3 10Z" fill="black"/>
<path d="M5 5V9.5C5 9.63261 5.05268 9.75979 5.14645 9.85355C5.24021 9.94732 5.36739 10 5.5 10C5.63261 10 5.75979 9.94732 5.85355 9.85355C5.94732 9.75979 6 9.63261 6 9.5V5C6 4.86739 5.94732 4.74021 5.85355 4.64645C5.75979 4.55268 5.63261 4.5 5.5 4.5C5.36739 4.5 5.24021 4.55268 5.14645 4.64645C5.05268 4.74021 5 4.86739 5 5Z" fill="black"/>
<path d="M7.5 6.5V9.5C7.5 9.63261 7.55268 9.75979 7.64645 9.85355C7.74021 9.94732 7.86739 10 8 10C8.13261 10 8.25979 9.94732 8.35355 9.85355C8.44732 9.75979 8.5 9.63261 8.5 9.5V6.5C8.5 6.36739 8.44732 6.24021 8.35355 6.14645C8.25979 6.05268 8.13261 6 8 6C7.86739 6 7.74021 6.05268 7.64645 6.14645C7.55268 6.24021 7.5 6.36739 7.5 6.5Z" fill="black"/>
<path d="M10 4.5V9.5C10 9.63261 10.0527 9.75979 10.1464 9.85355C10.2402 9.94732 10.3674 10 10.5 10C10.6326 10 10.7598 9.94732 10.8536 9.85355C10.9473 9.75979 11 9.63261 11 9.5V4.5C11 4.36739 10.9473 4.24021 10.8536 4.14645C10.7598 4.05268 10.6326 4 10.5 4C10.3674 4 10.2402 4.05268 10.1464 4.14645C10.0527 4.24021 10 4.36739 10 4.5Z" fill="black"/>
<path d="M3.00002 4.50001C3.13261 4.49998 3.25977 4.44728 3.35352 4.35351L5.14652 2.56051C5.24182 2.46972 5.36839 2.41908 5.50002 2.41908C5.63164 2.41908 5.75821 2.46972 5.85352 2.56051L6.93952 3.64651C7.22081 3.92771 7.60227 4.08568 8.00002 4.08568C8.39776 4.08568 8.77922 3.92771 9.06052 3.64651L11.8535 0.853505C11.9446 0.759204 11.995 0.632903 11.9939 0.501805C11.9927 0.370706 11.9401 0.2453 11.8474 0.152596C11.7547 0.0598919 11.6293 0.0073074 11.4982 0.00616819C11.3671 0.00502898 11.2408 0.0554262 11.1465 0.146505L8.35352 2.93901C8.25975 3.03274 8.1326 3.0854 8.00002 3.0854C7.86743 3.0854 7.74028 3.03274 7.64652 2.93901L6.56052 1.85351C6.27922 1.5723 5.89776 1.41433 5.50002 1.41433C5.10227 1.41433 4.72081 1.5723 4.43952 1.85351L2.64652 3.64651C2.57661 3.71643 2.52901 3.80551 2.50972 3.90249C2.49044 3.99947 2.50034 4.09998 2.53818 4.19133C2.57601 4.28268 2.64008 4.36076 2.72229 4.41571C2.80449 4.47065 2.90114 4.49998 3.00002 4.50001Z" fill="black"/>
</g>
<defs>
<clipPath id="clip0_16_449">
<rect width="12" height="12" fill="white"/>
</clipPath>
</defs>
</svg>
