<svg width="12" height="12" viewBox="0 0 12 12" fill="none" xmlns="http://www.w3.org/2000/svg">
<g clip-path="url(#clip0_2_1868)">
<path d="M2.00003 3C1.8029 3.00051 1.60763 2.96194 1.42551 2.8865C1.24339 2.81106 1.07804 2.70025 0.939026 2.5605L0.167026 1.8735C0.0679673 1.78518 0.00804992 1.66113 0.000454699 1.52863C-0.00714052 1.39614 0.0382086 1.26606 0.126526 1.167C0.214843 1.06794 0.338893 1.00802 0.471388 1.00043C0.603882 0.992831 0.733967 1.03818 0.833026 1.1265L1.62553 1.8335C1.67089 1.88445 1.72621 1.92557 1.78806 1.95434C1.84992 1.98311 1.91701 1.99892 1.9852 2.0008C2.0534 2.00267 2.12125 1.99057 2.1846 1.96524C2.24794 1.9399 2.30543 1.90188 2.35353 1.8535L4.15553 0.137997C4.25242 0.051732 4.37906 0.00650638 4.50868 0.0118724C4.6383 0.0172384 4.76076 0.0727759 4.8502 0.166754C4.93963 0.260733 4.98904 0.385794 4.98798 0.515523C4.98692 0.645251 4.93548 0.76949 4.84453 0.861997L3.05003 2.569C2.91191 2.70631 2.74809 2.81505 2.56792 2.889C2.38776 2.96295 2.19478 3.00067 2.00003 3ZM12 2C12 1.86739 11.9473 1.74021 11.8536 1.64644C11.7598 1.55268 11.6326 1.5 11.5 1.5H6.50003C6.36742 1.5 6.24024 1.55268 6.14647 1.64644C6.0527 1.74021 6.00003 1.86739 6.00003 2C6.00003 2.13261 6.0527 2.25978 6.14647 2.35355C6.24024 2.44732 6.36742 2.5 6.50003 2.5H11.5C11.6326 2.5 11.7598 2.44732 11.8536 2.35355C11.9473 2.25978 12 2.13261 12 2ZM3.05003 6.569L4.84453 4.862C4.89461 4.81741 4.93522 4.7632 4.96392 4.70259C4.99263 4.64199 5.00885 4.57623 5.01163 4.50923C5.0144 4.44223 5.00367 4.37535 4.98007 4.31259C4.95647 4.24982 4.92048 4.19244 4.87425 4.14386C4.82803 4.09528 4.7725 4.0565 4.71097 4.02982C4.64945 4.00314 4.58319 3.98911 4.51613 3.98857C4.44908 3.98802 4.3826 4.00097 4.32064 4.02664C4.25869 4.05231 4.20254 4.09018 4.15553 4.138L2.35553 5.8535C2.26034 5.94451 2.13372 5.99531 2.00203 5.99531C1.87033 5.99531 1.74371 5.94451 1.64853 5.8535L0.853526 5.061C0.759225 4.96992 0.632923 4.91952 0.501825 4.92066C0.370727 4.9218 0.24532 4.97438 0.152616 5.06709C0.0599123 5.15979 0.00732783 5.2852 0.00618862 5.4163C0.00504941 5.5474 0.0554466 5.6737 0.146526 5.768L0.939026 6.5605C1.21886 6.8404 1.59798 6.99836 1.99377 6.99995C2.38957 7.00154 2.76995 6.84664 3.05203 6.569H3.05003ZM12 6C12 5.86739 11.9473 5.74021 11.8536 5.64644C11.7598 5.55268 11.6326 5.5 11.5 5.5H6.50003C6.36742 5.5 6.24024 5.55268 6.14647 5.64644C6.0527 5.74021 6.00003 5.86739 6.00003 6C6.00003 6.13261 6.0527 6.25978 6.14647 6.35355C6.24024 6.44732 6.36742 6.5 6.50003 6.5H11.5C11.6326 6.5 11.7598 6.44732 11.8536 6.35355C11.9473 6.25978 12 6.13261 12 6ZM3.05003 10.569L4.84253 8.862C4.89261 8.81741 4.93322 8.7632 4.96192 8.70259C4.99063 8.64199 5.00685 8.57623 5.00963 8.50923C5.0124 8.44223 5.00167 8.37536 4.97807 8.31259C4.95447 8.24982 4.91848 8.19244 4.87225 8.14386C4.82603 8.09528 4.7705 8.0565 4.70897 8.02982C4.64745 8.00314 4.58119 7.98911 4.51413 7.98857C4.44708 7.98802 4.38059 8.00097 4.31864 8.02664C4.25669 8.05231 4.20054 8.09018 4.15353 8.138L2.35353 9.8535C2.30543 9.90188 2.24794 9.93991 2.1846 9.96524C2.12125 9.99057 2.0534 10.0027 1.9852 10.0008C1.91701 9.99892 1.84992 9.98311 1.78806 9.95434C1.72621 9.92557 1.67089 9.88445 1.62553 9.8335L0.833026 9.1265C0.733967 9.03818 0.603882 8.99283 0.471388 9.00043C0.338893 9.00802 0.214843 9.06794 0.126526 9.167C0.0382086 9.26606 -0.00714052 9.39614 0.000454699 9.52864C0.00804992 9.66113 0.0679673 9.78518 0.167026 9.8735L0.939026 10.5605C1.21886 10.8404 1.59798 10.9984 1.99377 10.9999C2.38957 11.0015 2.76995 10.8466 3.05203 10.569H3.05003ZM12 10C12 9.86739 11.9473 9.74021 11.8536 9.64644C11.7598 9.55268 11.6326 9.5 11.5 9.5H6.50003C6.36742 9.5 6.24024 9.55268 6.14647 9.64644C6.0527 9.74021 6.00003 9.86739 6.00003 10C6.00003 10.1326 6.0527 10.2598 6.14647 10.3536C6.24024 10.4473 6.36742 10.5 6.50003 10.5H11.5C11.6326 10.5 11.7598 10.4473 11.8536 10.3536C11.9473 10.2598 12 10.1326 12 10Z" fill="black"/>
</g>
<defs>
<clipPath id="clip0_2_1868">
<rect width="12" height="12" fill="white"/>
</clipPath>
</defs>
</svg>
